<?xml version="1.0" encoding="UTF-8"?>
<svg version="1.1" xmlns="http://www.w3.org/2000/svg" width="32" height="32">
<path d="M0 0 C10.56 0 21.12 0 32 0 C32 10.56 32 21.12 32 32 C21.44 32 10.88 32 0 32 C0 21.44 0 10.88 0 0 Z " fill="#272324" transform="translate(0,0)"/>
<path d="M0 0 C0.54398438 0.27199219 1.08796875 0.54398438 1.6484375 0.82421875 C0.02782717 4.81854656 -2.74495423 7.61980196 -5.7265625 10.63671875 C-6.44972656 11.40918945 -6.44972656 11.40918945 -7.1875 12.19726562 C-8.625 13.65625 -8.625 13.65625 -11.3515625 15.82421875 C-13.703125 15.6484375 -13.703125 15.6484375 -15.3515625 14.82421875 C-13.73095217 10.82989094 -10.95817077 8.02863554 -7.9765625 5.01171875 C-7.49445312 4.49673828 -7.01234375 3.98175781 -6.515625 3.45117188 C-2.90157254 -0.21689496 -2.90157254 -0.21689496 0 0 Z " fill="#DCDCDC" transform="translate(22.3515625,8.17578125)"/>
<path d="M0 0 C0.75 1.625 0.75 1.625 1 4 C-0.5 7.1875 -0.5 7.1875 -3 10 C-6.75 10.875 -6.75 10.875 -10 11 C-6.79239749 7.19364503 -3.59253891 3.45436433 0 0 Z " fill="#D6D6D6" transform="translate(25,15)"/>
<path d="M0 0 C0.721875 0.103125 1.44375 0.20625 2.1875 0.3125 C1.78917969 0.77140625 1.39085937 1.2303125 0.98046875 1.703125 C-2.41265709 5.62924827 -2.41265709 5.62924827 -5.5625 9.75 C-5.975 10.265625 -6.3875 10.78125 -6.8125 11.3125 C-7.4725 11.3125 -8.1325 11.3125 -8.8125 11.3125 C-8.54066925 7.41625918 -8.00155227 5.55406679 -5.5625 2.4375 C-2.8125 0.3125 -2.8125 0.3125 0 0 Z " fill="#D9D9D9" transform="translate(13.8125,5.6875)"/>
<path d="M0 0 C0.33 0.99 0.66 1.98 1 3 C-0.4375 5.1875 -0.4375 5.1875 -2 7 C-3.32 6.67 -4.64 6.34 -6 6 C-4.02 4.02 -2.04 2.04 0 0 Z " fill="#E2E1E1" transform="translate(24,18)"/>
</svg>
